# xmcd
# Copyright (C) 1995-1998 Ti Kan
#
# Track frame offsets:
#       150
#       8842
#       26462
#       40446
#       60439
#       74079
#       93024
#
# Disc length: 1434 seconds
#
# Revision: 0
# Processed by: cddbd v1.5.2PL0 Copyright (c) Steve Scherf et al.
# Submitted via: CD-Transfer v1.0
#
DISCID=52059807
DTITLE=Renar, Sara - Sara Renar
DYEAR=14
DGENRE=
TTITLE0=After
TTITLE1=Jesen
TTITLE2=Trag
TTITLE3=Ljubav
TTITLE4=Post Sezona
TTITLE5=Razmak
TTITLE6=Jesen (A Capella)
EXTD=
EXTT0=
EXTT1=
EXTT2=
EXTT3=
EXTT4=
EXTT5=
EXTT6=
PLAYORDER=
